<?xml version="1.0" encoding="UTF-8" standalone="no"?>
<!DOCTYPE svg PUBLIC "-//W3C//DTD SVG 20010904//EN"
"http://www.w3.org/TR/2001/REC-SVG-20010904/DTD/svg10.dtd">
<!-- Created with Sodipodi ("http://www.sodipodi.com/") -->
<svg
   width="453"
   height="453"
   xmlns="http://www.w3.org/2000/svg"
   xmlns:sodipodi="http://sodipodi.sourceforge.net/DTD/sodipodi-0.dtd"
   xmlns:xlink="http://www.w3.org/1999/xlink"
   id="svg558"
   sodipodi:version="0.32"
   sodipodi:docname="/home/users/krzak/public_html/gnome_menu_bociek.svg"
   sodipodi:docbase="/home/users/krzak/public_html/">
  <defs
     id="defs565" />
  <sodipodi:namedview
     id="base" />
  <path
     style="fill:#000000; stroke:none;"
     d="M138 160L145 159C149.762 146.025 159.852 133.134 167.914 122C183.268 100.792 199.862 80.6956 215.457 59.7145C218.879 55.1102 224.864 48.4482 226.485 42.9962C227.742 38.7698 225.641 34.3581 228.243 30.4398C234.141 21.5566 253 14.8217 255.772 30C259.435 50.0634 246.934 67.3918 236.139 83C222.901 102.14 210.339 121.449 199.478 142C197.123 146.456 197.718 151.655 195.276 155.942C189.904 165.375 179.779 167.256 177.339 180C171.009 213.054 175.274 254.614 208 272.786C212.337 275.194 216.509 273.937 221 275.26C231.063 278.224 237.656 279.134 248 277L248 272C238.266 271.912 230.556 266.202 223 260.579C195.718 240.275 191.651 210.418 193 179L201 180C202.473 183.635 208.146 190.328 211.918 184.436C214.254 180.789 209.174 173.712 208.39 170C206.616 161.613 208.722 151.74 212.059 144C223.588 117.255 242.221 91.7121 258.1 67.4244C266.888 53.9826 277.423 34.5763 272.366 18.0038C269.901 9.92657 262.982 11 256 11C241.247 11 229.345 13.4493 218.184 24.1335C214.407 27.75 209.573 31.9376 207.854 37.0008C205.972 42.5457 208.39 47.8273 204.592 52.8302C185.023 78.6046 162.79 102.439 148.833 132C144.436 141.313 138.036 149.372 138 160M289 258L288 258L283 247C271.175 248.64 273.807 260.178 276.671 269C285.026 294.736 293.775 322.78 294 350L298 348C300.495 357.278 300.81 367.525 302.389 377C302.791 379.413 305.529 388.995 307 382L308 382L311 384L308 351C316.19 349.578 314.226 338.266 311 333C315.987 331.345 315 326.54 315 322L315 293C314.998 253.986 300.108 199.8 273.815 170.174C269.087 164.848 262.461 161.462 257.325 156.551C253.606 152.995 250.229 146.923 244.91 145.608C239.042 144.158 228.204 150.112 229.492 157.001C231.719 168.911 247.616 176.144 254.366 185C270.064 205.596 284.596 232.089 289 258z"
     id="path560" />
  <path
     style="fill:#ffffff; stroke:none;"
     d="M289 259L290 260L289 259z"
     id="path561" />
  <path
     style="fill:#000000; stroke:none;"
     d="M240 441L254 441C254 432.794 251.55 425.003 251.354 417C250.552 384.26 251.002 350.832 251 318C250.999 308.283 250.024 298.675 250 289C249.991 285.447 250.482 280.281 245.941 279.408C232.55 276.835 236.415 305.312 237.424 313C243.043 355.792 236.636 398.371 240 441z"
     id="path562" />
  <path
     style="fill:#ffffff; stroke:none;"
     d="M305 367L306 368L305 367z"
     id="path563" />
</svg>
